<svg width="929" height="150" viewBox="0 0 929 150" fill="none" xmlns="http://www.w3.org/2000/svg">
<path d="M0.375 2.54545H49.5227L83.3295 84.9318H85.0341L118.841 2.54545H167.989V148H129.352V63.9091H128.216L95.8295 146.864H72.5341L40.1477 63.3409H39.0114V148H0.375V2.54545ZM303.612 75.2727C303.612 91.4659 300.464 105.126 294.166 116.253C287.869 127.332 279.37 135.737 268.669 141.466C257.968 147.148 246.036 149.989 232.874 149.989C219.616 149.989 207.637 147.124 196.936 141.395C186.283 135.618 177.807 127.19 171.51 116.111C165.26 104.984 162.135 91.3712 162.135 75.2727C162.135 59.0795 165.26 45.4432 171.51 34.3636C177.807 23.2367 186.283 14.8324 196.936 9.15056C207.637 3.4214 219.616 0.556813 232.874 0.556813C246.036 0.556813 257.968 3.4214 268.669 9.15056C279.37 14.8324 287.869 23.2367 294.166 34.3636C300.464 45.4432 303.612 59.0795 303.612 75.2727ZM262.987 75.2727C262.987 66.5606 261.827 59.2216 259.507 53.2557C257.234 47.2424 253.849 42.697 249.351 39.6193C244.9 36.4943 239.408 34.9318 232.874 34.9318C226.339 34.9318 220.823 36.4943 216.325 39.6193C211.875 42.697 208.489 47.2424 206.169 53.2557C203.896 59.2216 202.76 66.5606 202.76 75.2727C202.76 83.9848 203.896 91.3475 206.169 97.3608C208.489 103.327 211.875 107.872 216.325 110.997C220.823 114.075 226.339 115.614 232.874 115.614C239.408 115.614 244.9 114.075 249.351 110.997C253.849 107.872 257.234 103.327 259.507 97.3608C261.827 91.3475 262.987 83.9848 262.987 75.2727ZM438.792 75.2727C438.792 91.4659 435.643 105.126 429.346 116.253C423.049 127.332 414.549 135.737 403.849 141.466C393.148 147.148 381.216 149.989 368.053 149.989C354.796 149.989 342.817 147.124 332.116 141.395C321.462 135.618 312.987 127.19 306.69 116.111C300.44 104.984 297.315 91.3712 297.315 75.2727C297.315 59.0795 300.44 45.4432 306.69 34.3636C312.987 23.2367 321.462 14.8324 332.116 9.15056C342.817 3.4214 354.796 0.556813 368.053 0.556813C381.216 0.556813 393.148 3.4214 403.849 9.15056C414.549 14.8324 423.049 23.2367 429.346 34.3636C435.643 45.4432 438.792 59.0795 438.792 75.2727ZM398.167 75.2727C398.167 66.5606 397.007 59.2216 394.687 53.2557C392.414 47.2424 389.029 42.697 384.531 39.6193C380.08 36.4943 374.587 34.9318 368.053 34.9318C361.519 34.9318 356.003 36.4943 351.505 39.6193C347.054 42.697 343.669 47.2424 341.349 53.2557C339.076 59.2216 337.94 66.5606 337.94 75.2727C337.94 83.9848 339.076 91.3475 341.349 97.3608C343.669 103.327 347.054 107.872 351.505 110.997C356.003 114.075 361.519 115.614 368.053 115.614C374.587 115.614 380.08 114.075 384.531 110.997C389.029 107.872 392.414 103.327 394.687 97.3608C397.007 91.3475 398.167 83.9848 398.167 75.2727ZM489.028 148H433.062V2.54545H488.46C503.422 2.54545 516.348 5.45738 527.239 11.2812C538.176 17.0578 546.604 25.3911 552.523 36.2812C558.489 47.1241 561.472 60.1212 561.472 75.2727C561.472 90.4242 558.512 103.445 552.594 114.335C546.675 125.178 538.295 133.511 527.452 139.335C516.609 145.112 503.801 148 489.028 148ZM472.551 114.477H487.608C494.805 114.477 500.937 113.317 506.003 110.997C511.116 108.677 514.999 104.676 517.651 98.9943C520.349 93.3125 521.699 85.4053 521.699 75.2727C521.699 65.1402 520.326 57.233 517.58 51.5511C514.881 45.8693 510.903 41.8684 505.648 39.5483C500.439 37.2282 494.047 36.0682 486.472 36.0682H472.551V114.477ZM555.742 148V2.54545H618.81C629.89 2.54545 639.194 4.03693 646.722 7.01989C654.298 10.0028 660.004 14.2169 663.839 19.6619C667.721 25.107 669.663 31.5227 669.663 38.9091C669.663 44.2595 668.479 49.1364 666.112 53.5398C663.791 57.9432 660.524 61.6364 656.31 64.6193C652.096 67.5549 647.172 69.5909 641.538 70.7273V72.1477C647.788 72.3845 653.469 73.9706 658.583 76.9062C663.697 79.7945 667.769 83.7955 670.799 88.9091C673.829 93.9754 675.344 99.9413 675.344 106.807C675.344 114.761 673.261 121.84 669.094 128.043C664.975 134.245 659.104 139.122 651.481 142.673C643.858 146.224 634.767 148 624.208 148H555.742ZM595.231 116.466H613.697C620.326 116.466 625.297 115.235 628.612 112.773C631.926 110.263 633.583 106.57 633.583 101.693C633.583 98.2841 632.802 95.3958 631.239 93.0284C629.677 90.661 627.451 88.8617 624.563 87.6307C621.722 86.3996 618.29 85.7841 614.265 85.7841H595.231V116.466ZM595.231 61.3523H611.424C614.88 61.3523 617.934 60.8078 620.586 59.7188C623.237 58.6297 625.297 57.0672 626.765 55.0312C628.28 52.9479 629.038 50.4148 629.038 47.4318C629.038 42.9337 627.428 39.5009 624.208 37.1335C620.988 34.7188 616.916 33.5114 611.992 33.5114H595.231V61.3523ZM806.245 75.2727C806.245 91.4659 803.096 105.126 796.799 116.253C790.502 127.332 782.003 135.737 771.302 141.466C760.601 147.148 748.669 149.989 735.506 149.989C722.249 149.989 710.27 147.124 699.569 141.395C688.915 135.618 680.44 127.19 674.143 116.111C667.893 104.984 664.768 91.3712 664.768 75.2727C664.768 59.0795 667.893 45.4432 674.143 34.3636C680.44 23.2367 688.915 14.8324 699.569 9.15056C710.27 3.4214 722.249 0.556813 735.506 0.556813C748.669 0.556813 760.601 3.4214 771.302 9.15056C782.003 14.8324 790.502 23.2367 796.799 34.3636C803.096 45.4432 806.245 59.0795 806.245 75.2727ZM765.62 75.2727C765.62 66.5606 764.46 59.2216 762.14 53.2557C759.867 47.2424 756.482 42.697 751.984 39.6193C747.533 36.4943 742.04 34.9318 735.506 34.9318C728.972 34.9318 723.456 36.4943 718.958 39.6193C714.507 42.697 711.122 47.2424 708.802 53.2557C706.529 59.2216 705.393 66.5606 705.393 75.2727C705.393 83.9848 706.529 91.3475 708.802 97.3608C711.122 103.327 714.507 107.872 718.958 110.997C723.456 114.075 728.972 115.614 735.506 115.614C742.04 115.614 747.533 114.075 751.984 110.997C756.482 107.872 759.867 103.327 762.14 97.3608C764.46 91.3475 765.62 83.9848 765.62 75.2727ZM856.482 148H800.516V2.54545H855.913C870.875 2.54545 883.802 5.45738 894.692 11.2812C905.629 17.0578 914.057 25.3911 919.976 36.2812C925.942 47.1241 928.925 60.1212 928.925 75.2727C928.925 90.4242 925.965 103.445 920.047 114.335C914.128 125.178 905.748 133.511 894.905 139.335C884.062 145.112 871.254 148 856.482 148ZM840.004 114.477H855.061C862.258 114.477 868.39 113.317 873.456 110.997C878.57 108.677 882.452 104.676 885.104 98.9943C887.803 93.3125 889.152 85.4053 889.152 75.2727C889.152 65.1402 887.779 57.233 885.033 51.5511C882.334 45.8693 878.357 41.8684 873.101 39.5483C867.893 37.2282 861.5 36.0682 853.925 36.0682H840.004V114.477Z" fill="black"/>
</svg>
