<svg width="703" height="373" viewBox="0 0 703 373" fill="none" xmlns="http://www.w3.org/2000/svg">
<path d="M0.71875 3.18181H62.1534L104.412 106.165H106.543L148.801 3.18181H210.236V185H161.94V79.8864H160.52L120.037 183.58H90.9176L50.4347 79.1761H49.0142V185H0.71875V3.18181ZM379.765 94.0909C379.765 114.332 375.829 131.407 367.958 145.316C360.086 159.165 349.462 169.671 336.086 176.832C322.71 183.935 307.796 187.486 291.342 187.486C274.77 187.486 259.796 183.905 246.42 176.744C233.103 169.523 222.509 158.988 214.637 145.138C206.825 131.23 202.919 114.214 202.919 94.0909C202.919 73.8494 206.825 56.804 214.637 42.9545C222.509 29.0459 233.103 18.5405 246.42 11.4382C259.796 4.27675 274.77 0.696016 291.342 0.696016C307.796 0.696016 322.71 4.27675 336.086 11.4382C349.462 18.5405 360.086 29.0459 367.958 42.9545C375.829 56.804 379.765 73.8494 379.765 94.0909ZM328.984 94.0909C328.984 83.2008 327.534 74.027 324.634 66.5696C321.793 59.053 317.561 53.3712 311.939 49.5241C306.375 45.6179 299.51 43.6648 291.342 43.6648C283.174 43.6648 276.279 45.6179 270.657 49.5241C265.093 53.3712 260.861 59.053 257.961 66.5696C255.12 74.027 253.7 83.2008 253.7 94.0909C253.7 104.981 255.12 114.184 257.961 121.701C260.861 129.158 265.093 134.84 270.657 138.746C276.279 142.594 283.174 144.517 291.342 144.517C299.51 144.517 306.375 142.594 311.939 138.746C317.561 134.84 321.793 129.158 324.634 121.701C327.534 114.184 328.984 104.981 328.984 94.0909ZM548.74 94.0909C548.74 114.332 544.804 131.407 536.932 145.316C529.061 159.165 518.437 169.671 505.061 176.832C491.685 183.935 476.77 187.486 460.317 187.486C443.745 187.486 428.771 183.905 415.395 176.744C402.078 169.523 391.484 158.988 383.612 145.138C375.8 131.23 371.893 114.214 371.893 94.0909C371.893 73.8494 375.8 56.804 383.612 42.9545C391.484 29.0459 402.078 18.5405 415.395 11.4382C428.771 4.27675 443.745 0.696016 460.317 0.696016C476.77 0.696016 491.685 4.27675 505.061 11.4382C518.437 18.5405 529.061 29.0459 536.932 42.9545C544.804 56.804 548.74 73.8494 548.74 94.0909ZM497.959 94.0909C497.959 83.2008 496.509 74.027 493.608 66.5696C490.768 59.053 486.536 53.3712 480.913 49.5241C475.35 45.6179 468.484 43.6648 460.317 43.6648C452.149 43.6648 445.254 45.6179 439.631 49.5241C434.068 53.3712 429.836 59.053 426.936 66.5696C424.095 74.027 422.675 83.2008 422.675 94.0909C422.675 104.981 424.095 114.184 426.936 121.701C429.836 129.158 434.068 134.84 439.631 138.746C445.254 142.594 452.149 144.517 460.317 144.517C468.484 144.517 475.35 142.594 480.913 138.746C486.536 134.84 490.768 129.158 493.608 121.701C496.509 114.184 497.959 104.981 497.959 94.0909ZM611.536 185H541.578V3.18181H610.825C629.528 3.18181 645.686 6.82173 659.298 14.1016C672.97 21.3222 683.505 31.7389 690.903 45.3516C698.361 58.9051 702.089 75.1515 702.089 94.0909C702.089 113.03 698.39 129.306 690.992 142.919C683.594 156.473 673.118 166.889 659.565 174.169C646.011 181.39 630.001 185 611.536 185ZM590.939 143.097H609.76C618.756 143.097 626.421 141.647 632.754 138.746C639.146 135.846 643.999 130.845 647.313 123.743C650.687 116.641 652.374 106.757 652.374 94.0909C652.374 81.4252 650.657 71.5412 647.224 64.4389C643.851 57.3366 638.879 52.3355 632.31 49.4354C625.799 46.5353 617.809 45.0852 608.339 45.0852H590.939V143.097ZM0.71875 370V188.182H79.554C93.4034 188.182 105.033 190.046 114.444 193.775C123.914 197.504 131.045 202.771 135.839 209.577C140.693 216.384 143.119 224.403 143.119 233.636C143.119 240.324 141.64 246.42 138.68 251.925C135.78 257.429 131.697 262.045 126.429 265.774C121.161 269.444 115.006 271.989 107.963 273.409V275.185C115.776 275.481 122.878 277.463 129.27 281.133C135.662 284.743 140.752 289.744 144.54 296.136C148.328 302.469 150.222 309.927 150.222 318.509C150.222 328.452 147.617 337.3 142.409 345.053C137.26 352.807 129.921 358.903 120.392 363.342C110.863 367.781 99.4995 370 86.3011 370H0.71875ZM50.0795 330.582H73.1619C81.4479 330.582 87.6624 329.044 91.8054 325.966C95.9484 322.829 98.0199 318.213 98.0199 312.116C98.0199 307.855 97.0433 304.245 95.0902 301.286C93.1371 298.326 90.3554 296.077 86.745 294.538C83.1939 293 78.9029 292.23 73.8722 292.23H50.0795V330.582ZM50.0795 261.69H70.321C74.6416 261.69 78.459 261.01 81.7734 259.648C85.0878 258.287 87.6624 256.334 89.4972 253.789C91.3911 251.185 92.3381 248.018 92.3381 244.29C92.3381 238.667 90.3258 234.376 86.3011 231.417C82.2765 228.398 77.1866 226.889 71.0312 226.889H50.0795V261.69ZM313.847 279.091C313.847 299.332 309.911 316.407 302.04 330.316C294.168 344.165 283.544 354.671 270.168 361.832C256.792 368.935 241.878 372.486 225.424 372.486C208.852 372.486 193.878 368.905 180.502 361.744C167.185 354.523 156.591 343.988 148.719 330.138C140.907 316.23 137.001 299.214 137.001 279.091C137.001 258.849 140.907 241.804 148.719 227.955C156.591 214.046 167.185 203.54 180.502 196.438C193.878 189.277 208.852 185.696 225.424 185.696C241.878 185.696 256.792 189.277 270.168 196.438C283.544 203.54 294.168 214.046 302.04 227.955C309.911 241.804 313.847 258.849 313.847 279.091ZM263.066 279.091C263.066 268.201 261.616 259.027 258.716 251.57C255.875 244.053 251.643 238.371 246.021 234.524C240.457 230.618 233.592 228.665 225.424 228.665C217.256 228.665 210.361 230.618 204.739 234.524C199.175 238.371 194.943 244.053 192.043 251.57C189.202 259.027 187.782 268.201 187.782 279.091C187.782 289.981 189.202 299.184 192.043 306.701C194.943 314.158 199.175 319.84 204.739 323.746C210.361 327.594 217.256 329.517 225.424 329.517C233.592 329.517 240.457 327.594 246.021 323.746C251.643 319.84 255.875 314.158 258.716 306.701C261.616 299.184 263.066 289.981 263.066 279.091ZM376.643 370H306.686V188.182H375.933C394.635 188.182 410.793 191.822 424.406 199.102C438.078 206.322 448.613 216.739 456.011 230.352C463.468 243.905 467.197 260.152 467.197 279.091C467.197 298.03 463.498 314.306 456.1 327.919C448.701 341.473 438.226 351.889 424.672 359.169C411.119 366.39 395.109 370 376.643 370ZM356.046 328.097H374.867C383.864 328.097 391.528 326.647 397.861 323.746C404.253 320.846 409.106 315.845 412.421 308.743C415.794 301.641 417.481 291.757 417.481 279.091C417.481 266.425 415.765 256.541 412.332 249.439C408.958 242.337 403.987 237.335 397.417 234.435C390.907 231.535 382.917 230.085 373.447 230.085H356.046V328.097Z" fill="black"/>
</svg>
