<svg width="228" height="38" viewBox="0 0 228 38" fill="none" xmlns="http://www.w3.org/2000/svg">
<g clip-path="url(#clip0_225_2747)">
<path d="M0.572998 1.12162H12.4309L20.5874 21.4507H20.9987L29.1553 1.12162H41.0132V37.013H31.6913V16.2633H31.4172L23.6033 36.7327H17.9828L10.169 16.1231H9.8948V37.013H0.572998V1.12162ZM74.2175 19.0673C74.2175 23.063 73.458 26.4337 71.9384 29.1793C70.4192 31.9131 68.3686 33.9871 65.7868 35.4007C63.205 36.8028 60.3261 37.5038 57.1505 37.5038C53.9518 37.5038 51.0616 36.7969 48.4798 35.3832C45.9095 33.9577 43.8645 31.8781 42.3452 29.1443C40.8373 26.3987 40.0833 23.0397 40.0833 19.0673C40.0833 15.0716 40.8373 11.7068 42.3452 8.97286C43.8645 6.22726 45.9095 4.15347 48.4798 2.75147C51.0616 1.33777 53.9518 0.63092 57.1505 0.63092C60.3261 0.63092 63.205 1.33777 65.7868 2.75147C68.3686 4.15347 70.4192 6.22726 71.9384 8.97286C73.458 11.7068 74.2175 15.0716 74.2175 19.0673ZM64.4159 19.0673C64.4159 16.9176 64.136 15.1066 63.5763 13.6345C63.0279 12.1507 62.2112 11.0292 61.1259 10.2697C60.052 9.49861 58.727 9.11306 57.1505 9.11306C55.5738 9.11306 54.243 9.49861 53.1578 10.2697C52.0841 11.0292 51.2672 12.1507 50.7074 13.6345C50.159 15.1066 49.8849 16.9176 49.8849 19.0673C49.8849 21.217 50.159 23.0338 50.7074 24.5176C51.2672 25.9898 52.0841 27.1113 53.1578 27.8824C54.243 28.6419 55.5738 29.0217 57.1505 29.0217C58.727 29.0217 60.052 28.6419 61.1259 27.8824C62.2112 27.1113 63.0279 25.9898 63.5763 24.5176C64.136 23.0338 64.4159 21.217 64.4159 19.0673ZM107.315 19.0673C107.315 23.063 106.555 26.4337 105.036 29.1793C103.517 31.9131 101.466 33.9871 98.8842 35.4007C96.3024 36.8028 93.4235 37.5038 90.2477 37.5038C87.0492 37.5038 84.159 36.7969 81.5772 35.3832C79.0067 33.9577 76.9619 31.8781 75.4426 29.1443C73.9347 26.3987 73.1807 23.0397 73.1807 19.0673C73.1807 15.0716 73.9347 11.7068 75.4426 8.97286C76.9619 6.22726 79.0067 4.15347 81.5772 2.75147C84.159 1.33777 87.0492 0.63092 90.2477 0.63092C93.4235 0.63092 96.3024 1.33777 98.8842 2.75147C101.466 4.15347 103.517 6.22726 105.036 8.97286C106.555 11.7068 107.315 15.0716 107.315 19.0673ZM97.5133 19.0673C97.5133 16.9176 97.2334 15.1066 96.6737 13.6345C96.1253 12.1507 95.3086 11.0292 94.2233 10.2697C93.1494 9.49861 91.8242 9.11306 90.2477 9.11306C88.6712 9.11306 87.3404 9.49861 86.2552 10.2697C85.1813 11.0292 84.3646 12.1507 83.8048 13.6345C83.2564 15.1066 82.9823 16.9176 82.9823 19.0673C82.9823 21.217 83.2564 23.0338 83.8048 24.5176C84.3646 25.9898 85.1813 27.1113 86.2552 27.8824C87.3404 28.6419 88.6712 29.0217 90.2477 29.0217C91.8242 29.0217 93.1494 28.6419 94.2233 27.8824C95.3086 27.1113 96.1253 25.9898 96.6737 24.5176C97.2334 23.0338 97.5133 21.217 97.5133 19.0673ZM119.918 37.013H106.415V1.12162H119.781C123.391 1.12162 126.509 1.84015 129.137 3.2772C131.776 4.70259 133.809 6.75886 135.237 9.44603C136.677 12.1216 137.396 15.3286 137.396 19.0673C137.396 22.806 136.682 26.0189 135.254 28.7061C133.826 31.3816 131.805 33.4378 129.188 34.8749C126.572 36.3004 123.482 37.013 119.918 37.013ZM115.942 28.7411H119.575C121.312 28.7411 122.791 28.4549 124.013 27.8824C125.247 27.3099 126.184 26.3227 126.824 24.9206C127.475 23.5187 127.8 21.5676 127.8 19.0673C127.8 16.5671 127.469 14.616 126.807 13.2139C126.155 11.8119 125.196 10.8247 123.928 10.2522C122.671 9.67971 121.129 9.39347 119.301 9.39347H115.942V28.7411ZM136.496 37.013V1.12162H151.713C154.386 1.12162 156.631 1.48965 158.447 2.22571C160.275 2.96175 161.652 4.00159 162.577 5.34516C163.514 6.68876 163.982 8.27185 163.982 10.0945C163.982 11.4147 163.697 12.6181 163.125 13.7046C162.565 14.7912 161.777 15.7025 160.76 16.4385C159.744 17.1629 158.556 17.6653 157.196 17.9457V18.2962C158.704 18.3546 160.075 18.746 161.309 19.4704C162.543 20.1831 163.525 21.1703 164.256 22.4321C164.987 23.6823 165.353 25.1543 165.353 26.8485C165.353 28.8112 164.85 30.5579 163.845 32.0886C162.851 33.6189 161.435 34.8223 159.595 35.6986C157.756 36.5748 155.563 37.013 153.015 37.013H136.496ZM146.024 29.2319H150.479C152.079 29.2319 153.278 28.9281 154.078 28.3206C154.877 27.7013 155.277 26.79 155.277 25.5866C155.277 24.7454 155.089 24.0327 154.712 23.4486C154.335 22.8644 153.798 22.4204 153.101 22.1167C152.415 21.8129 151.587 21.661 150.616 21.661H146.024V29.2319ZM146.024 15.6324H149.931C150.765 15.6324 151.502 15.498 152.141 15.2293C152.781 14.9606 153.278 14.575 153.632 14.0727C153.998 13.5586 154.181 12.9335 154.181 12.1975C154.181 11.0876 153.792 10.2405 153.015 9.65634C152.238 9.0605 151.256 8.76257 150.068 8.76257H146.024V15.6324ZM197.418 19.0673C197.418 23.063 196.658 26.4337 195.139 29.1793C193.62 31.9131 191.569 33.9871 188.987 35.4007C186.405 36.8028 183.526 37.5038 180.351 37.5038C177.152 37.5038 174.262 36.7969 171.68 35.3832C169.11 33.9577 167.065 31.8781 165.546 29.1443C164.038 26.3987 163.284 23.0397 163.284 19.0673C163.284 15.0716 164.038 11.7068 165.546 8.97286C167.065 6.22726 169.11 4.15347 171.68 2.75147C174.262 1.33777 177.152 0.63092 180.351 0.63092C183.526 0.63092 186.405 1.33777 188.987 2.75147C191.569 4.15347 193.62 6.22726 195.139 8.97286C196.658 11.7068 197.418 15.0716 197.418 19.0673ZM187.616 19.0673C187.616 16.9176 187.336 15.1066 186.777 13.6345C186.228 12.1507 185.412 11.0292 184.326 10.2697C183.252 9.49861 181.927 9.11306 180.351 9.11306C178.774 9.11306 177.443 9.49861 176.358 10.2697C175.284 11.0292 174.468 12.1507 173.908 13.6345C173.359 15.1066 173.085 16.9176 173.085 19.0673C173.085 21.217 173.359 23.0338 173.908 24.5176C174.468 25.9898 175.284 27.1113 176.358 27.8824C177.443 28.6419 178.774 29.0217 180.351 29.0217C181.927 29.0217 183.252 28.6419 184.326 27.8824C185.412 27.1113 186.228 25.9898 186.777 24.5176C187.336 23.0338 187.616 21.217 187.616 19.0673ZM210.021 37.013H196.518V1.12162H209.884C213.494 1.12162 216.613 1.84015 219.24 3.2772C221.879 4.70259 223.912 6.75886 225.34 9.44603C226.78 12.1216 227.499 15.3286 227.499 19.0673C227.499 22.806 226.785 26.0189 225.357 28.7061C223.929 31.3816 221.907 33.4378 219.291 34.8749C216.675 36.3004 213.585 37.013 210.021 37.013ZM206.045 28.7411H209.678C211.415 28.7411 212.894 28.4549 214.116 27.8824C215.35 27.3099 216.287 26.3227 216.927 24.9206C217.578 23.5187 217.903 21.5676 217.903 19.0673C217.903 16.5671 217.572 14.616 216.91 13.2139C216.258 11.8119 215.299 10.8247 214.031 10.2522C212.774 9.67971 211.232 9.39347 209.404 9.39347H206.045V28.7411Z" fill="black"/>
<mask id="mask0_225_2747" style="mask-type:luminance" maskUnits="userSpaceOnUse" x="0" y="0" width="228" height="38">
<path d="M228 0H0V38H228V0Z" fill="white"/>
<path d="M0.572998 1.12162H12.4309L20.5874 21.4507H20.9987L29.1553 1.12162H41.0132V37.013H31.6913V16.2633H31.4172L23.6033 36.7327H17.9828L10.169 16.1231H9.8948V37.013H0.572998V1.12162ZM74.2175 19.0673C74.2175 23.063 73.458 26.4337 71.9384 29.1793C70.4192 31.9131 68.3686 33.9871 65.7868 35.4007C63.205 36.8028 60.3261 37.5038 57.1505 37.5038C53.9518 37.5038 51.0616 36.7969 48.4798 35.3832C45.9095 33.9577 43.8645 31.8781 42.3452 29.1443C40.8373 26.3987 40.0833 23.0397 40.0833 19.0673C40.0833 15.0716 40.8373 11.7068 42.3452 8.97286C43.8645 6.22726 45.9095 4.15347 48.4798 2.75147C51.0616 1.33777 53.9518 0.63092 57.1505 0.63092C60.3261 0.63092 63.205 1.33777 65.7868 2.75147C68.3686 4.15347 70.4192 6.22726 71.9384 8.97286C73.458 11.7068 74.2175 15.0716 74.2175 19.0673ZM64.4159 19.0673C64.4159 16.9176 64.136 15.1066 63.5763 13.6345C63.0279 12.1507 62.2112 11.0292 61.1259 10.2697C60.052 9.49861 58.727 9.11306 57.1505 9.11306C55.5738 9.11306 54.243 9.49861 53.1578 10.2697C52.0841 11.0292 51.2672 12.1507 50.7074 13.6345C50.159 15.1066 49.8849 16.9176 49.8849 19.0673C49.8849 21.217 50.159 23.0338 50.7074 24.5176C51.2672 25.9898 52.0841 27.1113 53.1578 27.8824C54.243 28.6419 55.5738 29.0217 57.1505 29.0217C58.727 29.0217 60.052 28.6419 61.1259 27.8824C62.2112 27.1113 63.0279 25.9898 63.5763 24.5176C64.136 23.0338 64.4159 21.217 64.4159 19.0673ZM107.315 19.0673C107.315 23.063 106.555 26.4337 105.036 29.1793C103.517 31.9131 101.466 33.9871 98.8842 35.4007C96.3024 36.8028 93.4235 37.5038 90.2477 37.5038C87.0492 37.5038 84.159 36.7969 81.5772 35.3832C79.0067 33.9577 76.9619 31.8781 75.4426 29.1443C73.9347 26.3987 73.1807 23.0397 73.1807 19.0673C73.1807 15.0716 73.9347 11.7068 75.4426 8.97286C76.9619 6.22726 79.0067 4.15347 81.5772 2.75147C84.159 1.33777 87.0492 0.63092 90.2477 0.63092C93.4235 0.63092 96.3024 1.33777 98.8842 2.75147C101.466 4.15347 103.517 6.22726 105.036 8.97286C106.555 11.7068 107.315 15.0716 107.315 19.0673ZM97.5133 19.0673C97.5133 16.9176 97.2334 15.1066 96.6737 13.6345C96.1253 12.1507 95.3086 11.0292 94.2233 10.2697C93.1494 9.49861 91.8242 9.11306 90.2477 9.11306C88.6712 9.11306 87.3404 9.49861 86.2552 10.2697C85.1813 11.0292 84.3646 12.1507 83.8048 13.6345C83.2564 15.1066 82.9823 16.9176 82.9823 19.0673C82.9823 21.217 83.2564 23.0338 83.8048 24.5176C84.3646 25.9898 85.1813 27.1113 86.2552 27.8824C87.3404 28.6419 88.6712 29.0217 90.2477 29.0217C91.8242 29.0217 93.1494 28.6419 94.2233 27.8824C95.3086 27.1113 96.1253 25.9898 96.6737 24.5176C97.2334 23.0338 97.5133 21.217 97.5133 19.0673ZM119.918 37.013H106.415V1.12162H119.781C123.391 1.12162 126.509 1.84015 129.137 3.2772C131.776 4.70259 133.809 6.75886 135.237 9.44603C136.677 12.1216 137.396 15.3286 137.396 19.0673C137.396 22.806 136.682 26.0189 135.254 28.7061C133.826 31.3816 131.805 33.4378 129.188 34.8749C126.572 36.3004 123.482 37.013 119.918 37.013ZM115.942 28.7411H119.575C121.312 28.7411 122.791 28.4549 124.013 27.8824C125.247 27.3099 126.184 26.3227 126.824 24.9206C127.475 23.5187 127.8 21.5676 127.8 19.0673C127.8 16.5671 127.469 14.616 126.807 13.2139C126.155 11.8119 125.196 10.8247 123.928 10.2522C122.671 9.67971 121.129 9.39347 119.301 9.39347H115.942V28.7411ZM136.496 37.013V1.12162H151.713C154.386 1.12162 156.631 1.48965 158.447 2.22571C160.275 2.96175 161.652 4.00159 162.577 5.34516C163.514 6.68876 163.982 8.27185 163.982 10.0945C163.982 11.4147 163.697 12.6181 163.125 13.7046C162.565 14.7912 161.777 15.7025 160.76 16.4385C159.744 17.1629 158.556 17.6653 157.196 17.9457V18.2962C158.704 18.3546 160.075 18.746 161.309 19.4704C162.543 20.1831 163.525 21.1703 164.256 22.4321C164.987 23.6823 165.353 25.1543 165.353 26.8485C165.353 28.8112 164.85 30.5579 163.845 32.0886C162.851 33.6189 161.435 34.8223 159.595 35.6986C157.756 36.5748 155.563 37.013 153.015 37.013H136.496ZM146.024 29.2319H150.479C152.079 29.2319 153.278 28.9281 154.078 28.3206C154.877 27.7013 155.277 26.79 155.277 25.5866C155.277 24.7454 155.089 24.0327 154.712 23.4486C154.335 22.8644 153.798 22.4204 153.101 22.1167C152.415 21.8129 151.587 21.661 150.616 21.661H146.024V29.2319ZM146.024 15.6324H149.931C150.765 15.6324 151.502 15.498 152.141 15.2293C152.781 14.9606 153.278 14.575 153.632 14.0727C153.998 13.5586 154.181 12.9335 154.181 12.1975C154.181 11.0876 153.792 10.2405 153.015 9.65634C152.238 9.0605 151.256 8.76257 150.068 8.76257H146.024V15.6324ZM197.418 19.0673C197.418 23.063 196.658 26.4337 195.139 29.1793C193.62 31.9131 191.569 33.9871 188.987 35.4007C186.405 36.8028 183.526 37.5038 180.351 37.5038C177.152 37.5038 174.262 36.7969 171.68 35.3832C169.11 33.9577 167.065 31.8781 165.546 29.1443C164.038 26.3987 163.284 23.0397 163.284 19.0673C163.284 15.0716 164.038 11.7068 165.546 8.97286C167.065 6.22726 169.11 4.15347 171.68 2.75147C174.262 1.33777 177.152 0.63092 180.351 0.63092C183.526 0.63092 186.405 1.33777 188.987 2.75147C191.569 4.15347 193.62 6.22726 195.139 8.97286C196.658 11.7068 197.418 15.0716 197.418 19.0673ZM187.616 19.0673C187.616 16.9176 187.336 15.1066 186.777 13.6345C186.228 12.1507 185.412 11.0292 184.326 10.2697C183.252 9.49861 181.927 9.11306 180.351 9.11306C178.774 9.11306 177.443 9.49861 176.358 10.2697C175.284 11.0292 174.468 12.1507 173.908 13.6345C173.359 15.1066 173.085 16.9176 173.085 19.0673C173.085 21.217 173.359 23.0338 173.908 24.5176C174.468 25.9898 175.284 27.1113 176.358 27.8824C177.443 28.6419 178.774 29.0217 180.351 29.0217C181.927 29.0217 183.252 28.6419 184.326 27.8824C185.412 27.1113 186.228 25.9898 186.777 24.5176C187.336 23.0338 187.616 21.217 187.616 19.0673ZM210.021 37.013H196.518V1.12162H209.884C213.494 1.12162 216.613 1.84015 219.24 3.2772C221.879 4.70259 223.912 6.75886 225.34 9.44603C226.78 12.1216 227.499 15.3286 227.499 19.0673C227.499 22.806 226.785 26.0189 225.357 28.7061C223.929 31.3816 221.907 33.4378 219.291 34.8749C216.675 36.3004 213.585 37.013 210.021 37.013ZM206.045 28.7411H209.678C211.415 28.7411 212.894 28.4549 214.116 27.8824C215.35 27.3099 216.287 26.3227 216.927 24.9206C217.578 23.5187 217.903 21.5676 217.903 19.0673C217.903 16.5671 217.572 14.616 216.91 13.2139C216.258 11.8119 215.299 10.8247 214.031 10.2522C212.774 9.67971 211.232 9.39347 209.404 9.39347H206.045V28.7411Z" fill="black"/>
</mask>
<g mask="url(#mask0_225_2747)">
<path d="M0.573116 1.1216V0.628093H0.0905762V1.1216H0.573116ZM12.431 1.1216L12.8774 0.934252L12.7546 0.628093H12.431V1.1216ZM20.5876 21.4507L20.1411 21.6381L20.264 21.9442H20.5876V21.4507ZM20.9988 21.4507V21.9442H21.3224L21.4452 21.6381L20.9988 21.4507ZM29.1554 1.1216V0.628093H28.8318L28.709 0.934252L29.1554 1.1216ZM41.0133 1.1216H41.4959V0.628093H41.0133V1.1216ZM41.0133 37.013V37.5065H41.4959V37.013H41.0133ZM31.6914 37.013H31.2088V37.5065H31.6914V37.013ZM31.6914 16.2633H32.1739V15.7698H31.6914V16.2633ZM31.4173 16.2633V15.7698H31.0877L30.9678 16.0838L31.4173 16.2633ZM23.6034 36.7327V37.2262H23.933L24.0529 36.9121L23.6034 36.7327ZM17.9829 36.7327L17.533 36.9111L17.6525 37.2262H17.9829V36.7327ZM10.1691 16.1231L10.619 15.9447L10.4995 15.6296H10.1691V16.1231ZM9.89491 16.1231V15.6296H9.41237V16.1231H9.89491ZM9.89491 37.013V37.5065H10.3775V37.013H9.89491ZM0.573116 37.013H0.0905762V37.5065H0.573116V37.013ZM0.573116 1.1216V1.61511H12.431V1.1216V0.628093H0.573116V1.1216ZM12.431 1.1216L11.9846 1.30895L20.1411 21.6381L20.5876 21.4507L21.034 21.2634L12.8774 0.934252L12.431 1.1216ZM20.5876 21.4507V21.9442H20.9988V21.4507V20.9572H20.5876V21.4507ZM20.9988 21.4507L21.4452 21.6381L29.6017 1.30895L29.1554 1.1216L28.709 0.934252L20.5524 21.2634L20.9988 21.4507ZM29.1554 1.1216V1.61511H41.0133V1.1216V0.628093H29.1554V1.1216ZM41.0133 1.1216H40.5308V37.013H41.0133H41.4959V1.1216H41.0133ZM41.0133 37.013V36.5195H31.6914V37.013V37.5065H41.0133V37.013ZM31.6914 37.013H32.1739V16.2633H31.6914H31.2088V37.013H31.6914ZM31.6914 16.2633V15.7698H31.4173V16.2633V16.7568H31.6914V16.2633ZM31.4173 16.2633L30.9678 16.0838L23.1539 36.553L23.6034 36.7327L24.0529 36.9121L31.8668 16.4427L31.4173 16.2633ZM23.6034 36.7327V36.2392H17.9829V36.7327V37.2262H23.6034V36.7327ZM17.9829 36.7327L18.4328 36.5543L10.619 15.9447L10.1691 16.1231L9.71917 16.3015L17.533 36.9111L17.9829 36.7327ZM10.1691 16.1231V15.6296H9.89491V16.1231V16.6166H10.1691V16.1231ZM9.89491 16.1231H9.41237V37.013H9.89491H10.3775V16.1231H9.89491ZM9.89491 37.013V36.5195H0.573116V37.013V37.5065H9.89491V37.013ZM0.573116 37.013H1.05566V1.1216H0.573116H0.0905762V37.013H0.573116ZM71.9386 29.1793L72.3581 29.4231L72.3586 29.4224L71.9386 29.1793ZM65.7869 35.4007L66.0132 35.8365L66.0147 35.8357L65.7869 35.4007ZM48.4799 35.3832L48.25 35.817L48.2521 35.8182L48.4799 35.3832ZM42.3454 29.1443L41.9246 29.3858L41.9258 29.3881L42.3454 29.1443ZM42.3454 8.97283L41.9253 8.72976L41.9251 8.73037L42.3454 8.97283ZM48.4799 2.75144L48.7069 3.18689L48.7077 3.18652L48.4799 2.75144ZM65.7869 2.75144L65.5592 3.18652L65.5606 3.18731L65.7869 2.75144ZM71.9386 8.97283L71.5188 9.21591L71.519 9.2167L71.9386 8.97283ZM63.5764 13.6345L63.125 13.809L63.1259 13.8112L63.1267 13.8134L63.5764 13.6345ZM61.1261 10.2697L60.8488 10.6736L60.851 10.6753L60.8534 10.677L61.1261 10.2697ZM53.1579 10.2697L53.4324 10.6756L53.4332 10.675L53.1579 10.2697ZM50.7075 13.6345L50.2573 13.4569L50.2566 13.4588L50.7075 13.6345ZM50.7075 24.5176L50.2561 24.6921L50.2571 24.6943L50.2578 24.6965L50.7075 24.5176ZM53.1579 27.8824L52.8807 28.2863L52.8831 28.288L52.8855 28.2898L53.1579 27.8824ZM61.1261 27.8824L61.4004 28.2883L61.4013 28.2878L61.1261 27.8824ZM63.5764 24.5176L63.1262 24.34L63.1255 24.3419L63.5764 24.5176ZM74.2176 19.0673H73.7351C73.7351 23.0001 72.9874 26.2819 71.5188 28.9363L71.9386 29.1793L72.3586 29.4224C73.9286 26.5854 74.7001 23.1259 74.7001 19.0673H74.2176ZM71.9386 29.1793L71.519 28.9355C70.0424 31.5926 68.0565 33.5982 65.5592 34.9657L65.7869 35.4007L66.0147 35.8357C68.6809 34.3759 70.7962 32.2339 72.3581 29.4231L71.9386 29.1793ZM65.7869 35.4007L65.5606 34.9647C63.0545 36.3258 60.2543 37.0103 57.1507 37.0103V37.5038V37.9973C60.3984 37.9973 63.3559 37.2797 66.0132 35.8365L65.7869 35.4007ZM57.1507 37.5038V37.0103C54.0238 37.0103 51.213 36.3199 48.7077 34.9482L48.4799 35.3832L48.2521 35.8182C50.9102 37.2738 53.88 37.9973 57.1507 37.9973V37.5038ZM48.4799 35.3832L48.7098 34.9494C46.2231 33.5703 44.242 31.5585 42.7649 28.9005L42.3454 29.1443L41.9258 29.3881C43.4873 32.1978 45.596 34.3453 48.25 35.817L48.4799 35.3832ZM42.3454 29.1443L42.7661 28.9024C41.3079 26.2476 40.566 22.9767 40.566 19.0673H40.0835H39.6009C39.6009 23.1025 40.367 26.5497 41.9246 29.3858L42.3454 29.1443ZM40.0835 19.0673H40.566C40.566 15.1338 41.3082 11.8577 42.7657 9.21531L42.3454 8.97283L41.9251 8.73037C40.3667 11.5558 39.6009 15.0094 39.6009 19.0673H40.0835ZM42.3454 8.97283L42.7654 9.21591C44.2422 6.54683 46.2223 4.54215 48.7069 3.18689L48.4799 2.75144L48.2529 2.31599C45.5967 3.76473 43.4871 5.90764 41.9253 8.72976L42.3454 8.97283ZM48.4799 2.75144L48.7077 3.18652C51.213 1.81464 54.0238 1.1244 57.1507 1.1244V0.630896V0.13739C53.88 0.13739 50.9102 0.860845 48.2521 2.31636L48.4799 2.75144ZM57.1507 0.630896V1.1244C60.2539 1.1244 63.0533 1.81436 65.5592 3.18652L65.7869 2.75144L66.0147 2.31636C63.3571 0.861119 60.3989 0.13739 57.1507 0.13739V0.630896ZM65.7869 2.75144L65.5606 3.18731C68.0565 4.54275 70.0419 6.5474 71.5188 9.21591L71.9386 8.97283L72.3586 8.72976C70.7966 5.9071 68.6807 3.76414 66.0132 2.31556L65.7869 2.75144ZM71.9386 8.97283L71.519 9.2167C72.9874 11.8588 73.7351 15.1344 73.7351 19.0673H74.2176H74.7001C74.7001 15.0088 73.9286 11.5548 72.3581 8.72899L71.9386 8.97283ZM64.416 19.0673H64.8986C64.8986 16.877 64.6139 15.0013 64.0261 13.4556L63.5764 13.6345L63.1267 13.8134C63.6584 15.2119 63.9335 16.9581 63.9335 19.0673H64.416ZM63.5764 13.6345L64.0278 13.46C63.4509 11.8991 62.5792 10.6885 61.3985 9.8624L61.1261 10.2697L60.8534 10.677C61.8434 11.3697 62.6053 12.4023 63.125 13.809L63.5764 13.6345ZM61.1261 10.2697L61.4033 9.86581C60.2331 9.02544 58.8058 8.61953 57.1507 8.61953V9.11304V9.60654C58.6482 9.60654 59.8715 9.97174 60.8488 10.6736L61.1261 10.2697ZM57.1507 9.11304V8.61953C55.4951 8.61953 54.0634 9.02549 52.8826 9.8644L53.1579 10.2697L53.4332 10.675C54.4231 9.97169 55.6531 9.60654 57.1507 9.60654V9.11304ZM53.1579 10.2697L52.8836 9.86378C51.7158 10.6896 50.8453 11.8987 50.2573 13.4569L50.7075 13.6345L51.1578 13.8122C51.6895 12.4028 52.4524 11.3686 53.4324 10.6756L53.1579 10.2697ZM50.7075 13.6345L50.2566 13.4588C49.6812 15.0034 49.4025 16.8779 49.4025 19.0673H49.8851H50.3676C50.3676 16.9571 50.6371 15.2098 51.1585 13.8102L50.7075 13.6345ZM49.8851 19.0673H49.4025C49.4025 21.2568 49.6814 23.1366 50.2561 24.6921L50.7075 24.5176L51.159 24.3431C50.6371 22.931 50.3676 21.1772 50.3676 19.0673H49.8851ZM50.7075 24.5176L50.2578 24.6965C50.8458 26.2429 51.7158 27.4498 52.8807 28.2863L53.1579 27.8824L53.4353 27.4784C52.4524 26.7727 51.6888 25.7364 51.1573 24.3387L50.7075 24.5176ZM53.1579 27.8824L52.8855 28.2898C54.0658 29.1156 55.4965 29.5151 57.1507 29.5151V29.0216V28.5281C55.6516 28.5281 54.4207 28.1681 53.4305 27.4752L53.1579 27.8824ZM57.1507 29.0216V29.5151C58.8043 29.5151 60.2305 29.1156 61.4004 28.2883L61.1261 27.8824L60.8515 27.4765C59.8739 28.1679 58.6497 28.5281 57.1507 28.5281V29.0216ZM61.1261 27.8824L61.4013 28.2878C62.579 27.451 63.4502 26.2424 64.0273 24.6933L63.5764 24.5176L63.1255 24.3419C62.6058 25.7369 61.8436 26.7717 60.8508 27.4772L61.1261 27.8824ZM63.5764 24.5176L64.0266 24.6953C64.6139 23.1387 64.8986 21.2578 64.8986 19.0673H64.416H63.9335C63.9335 21.1763 63.6584 22.9289 63.1262 24.34L63.5764 24.5176ZM105.036 29.1793L105.456 29.4231L105.456 29.4224L105.036 29.1793ZM98.8843 35.4007L99.1106 35.8365L99.1121 35.8357L98.8843 35.4007ZM81.5773 35.3832L81.3471 35.817L81.3495 35.8182L81.5773 35.3832ZM75.4428 29.1443L75.022 29.3858L75.0232 29.3881L75.4428 29.1443ZM75.4428 8.97283L75.0227 8.72976L75.0225 8.73037L75.4428 8.97283ZM81.5773 2.75144L81.8043 3.18689L81.8051 3.18652L81.5773 2.75144ZM98.8843 2.75144L98.6565 3.18652L98.658 3.18731L98.8843 2.75144ZM105.036 8.97283L104.616 9.21591L104.616 9.2167L105.036 8.97283ZM96.6738 13.6345L96.2224 13.809L96.2231 13.8112L96.2241 13.8134L96.6738 13.6345ZM94.2235 10.2697L93.946 10.6736L93.9484 10.6753L93.9508 10.677L94.2235 10.2697ZM86.2553 10.2697L86.5296 10.6756L86.5306 10.675L86.2553 10.2697ZM83.8049 13.6345L83.3547 13.4569L83.354 13.4588L83.8049 13.6345ZM83.8049 24.5176L83.3535 24.6921L83.3542 24.6943L83.3552 24.6965L83.8049 24.5176ZM86.2553 27.8824L85.9781 28.2863L85.9805 28.288L85.9829 28.2898L86.2553 27.8824ZM94.2235 27.8824L94.4978 28.2883L94.4987 28.2878L94.2235 27.8824ZM96.6738 24.5176L96.2236 24.34L96.2229 24.3419L96.6738 24.5176ZM107.315 19.0673H106.832C106.832 23.0001 106.085 26.2819 104.616 28.9363L105.036 29.1793L105.456 29.4224C107.026 26.5854 107.798 23.1259 107.798 19.0673H107.315ZM105.036 29.1793L104.616 28.9355C103.14 31.5926 101.154 33.5982 98.6565 34.9657L98.8843 35.4007L99.1121 35.8357C101.778 34.3759 103.894 32.2339 105.456 29.4231L105.036 29.1793ZM98.8843 35.4007L98.658 34.9647C96.1517 36.3258 93.3518 37.0103 90.2478 37.0103V37.5038V37.9973C93.4956 37.9973 96.4533 37.2797 99.1106 35.8365L98.8843 35.4007ZM90.2478 37.5038V37.0103C87.1212 37.0103 84.3104 36.3199 81.8051 34.9482L81.5773 35.3832L81.3495 35.8182C84.0076 37.2738 86.9772 37.9973 90.2478 37.9973V37.5038ZM81.5773 35.3832L81.8072 34.9494C79.3205 33.5703 77.3394 31.5585 75.8621 28.9005L75.4428 29.1443L75.0232 29.3881C76.5847 32.1978 78.6934 34.3453 81.3471 35.817L81.5773 35.3832ZM75.4428 29.1443L75.8633 28.9024C74.4053 26.2476 73.6634 22.9767 73.6634 19.0673H73.1809H72.6983C72.6983 23.1025 73.4641 26.5497 75.022 29.3858L75.4428 29.1443ZM73.1809 19.0673H73.6634C73.6634 15.1338 74.4056 11.8577 75.8631 9.21531L75.4428 8.97283L75.0225 8.73037C73.4639 11.5558 72.6983 15.0094 72.6983 19.0673H73.1809ZM75.4428 8.97283L75.8626 9.21591C77.3396 6.54683 79.3197 4.54215 81.8043 3.18689L81.5773 2.75144L81.3503 2.31599C78.6941 3.76473 76.5845 5.90764 75.0227 8.72976L75.4428 8.97283ZM81.5773 2.75144L81.8051 3.18652C84.3104 1.81464 87.1212 1.1244 90.2478 1.1244V0.630896V0.13739C86.9772 0.13739 84.0076 0.860845 81.3495 2.31636L81.5773 2.75144ZM90.2478 0.630896V1.1244C93.351 1.1244 96.1505 1.81436 98.6565 3.18652L98.8843 2.75144L99.1121 2.31636C96.4542 0.861119 93.4963 0.13739 90.2478 0.13739V0.630896ZM98.8843 2.75144L98.658 3.18731C101.154 4.54275 103.139 6.5474 104.616 9.21591L105.036 8.97283L105.456 8.72976C103.894 5.9071 101.778 3.76414 99.1106 2.31556L98.8843 2.75144ZM105.036 8.97283L104.616 9.2167C106.085 11.8588 106.832 15.1344 106.832 19.0673H107.315H107.798C107.798 15.0088 107.026 11.5548 105.456 8.72899L105.036 8.97283ZM97.5134 19.0673H97.9959C97.9959 16.877 97.7113 15.0013 97.1235 13.4556L96.6738 13.6345L96.2241 13.8134C96.7558 15.2119 97.0309 16.9581 97.0309 19.0673H97.5134ZM96.6738 13.6345L97.1252 13.46C96.5483 11.8991 95.6764 10.6885 94.4958 9.8624L94.2235 10.2697L93.9508 10.677C94.9408 11.3697 95.7024 12.4023 96.2224 13.809L96.6738 13.6345ZM94.2235 10.2697L94.5007 9.86581C93.3303 9.02544 91.9032 8.61953 90.2478 8.61953V9.11304V9.60654C91.7456 9.60654 92.9686 9.97174 93.946 10.6736L94.2235 10.2697ZM90.2478 9.11304V8.61953C88.5925 8.61953 87.1605 9.02549 85.98 9.8644L86.2553 10.2697L86.5306 10.675C87.5205 9.97169 88.7505 9.60654 90.2478 9.60654V9.11304ZM86.2553 10.2697L85.9807 9.86378C84.8132 10.6896 83.9425 11.8987 83.3547 13.4569L83.8049 13.6345L84.2551 13.8122C84.7867 12.4028 85.5498 11.3686 86.5296 10.6756L86.2553 10.2697ZM83.8049 13.6345L83.354 13.4588C82.7786 15.0034 82.4999 16.8779 82.4999 19.0673H82.9825H83.465C83.465 16.9571 83.7345 15.2098 84.2559 13.8102L83.8049 13.6345ZM82.9825 19.0673H82.4999C82.4999 21.2568 82.7786 23.1366 83.3535 24.6921L83.8049 24.5176L84.2564 24.3431C83.7345 22.931 83.465 21.1772 83.465 19.0673H82.9825ZM83.8049 24.5176L83.3552 24.6965C83.9432 26.2429 84.8132 27.4498 85.9781 28.2863L86.2553 27.8824L86.5325 27.4784C85.5496 26.7727 84.7862 25.7364 84.2547 24.3387L83.8049 24.5176ZM86.2553 27.8824L85.9829 28.2898C87.1632 29.1156 88.5939 29.5151 90.2478 29.5151V29.0216V28.5281C88.749 28.5281 87.5178 28.1681 86.5277 27.4752L86.2553 27.8824ZM90.2478 29.0216V29.5151C91.9017 29.5151 93.3279 29.1156 94.4978 28.2883L94.2235 27.8824L93.9489 27.4765C92.9713 28.1679 91.7471 28.5281 90.2478 28.5281V29.0216ZM94.2235 27.8824L94.4987 28.2878C95.6764 27.451 96.5476 26.2424 97.1247 24.6933L96.6738 24.5176L96.2229 24.3419C95.7032 25.7369 94.941 26.7717 93.9479 27.4772L94.2235 27.8824ZM96.6738 24.5176L97.124 24.6953C97.7113 23.1387 97.9959 21.2578 97.9959 19.0673H97.5134H97.0309C97.0309 21.1763 96.7558 22.9289 96.2236 24.34L96.6738 24.5176ZM106.415 37.013H105.933V37.5065H106.415V37.013ZM106.415 1.1216V0.628093H105.933V1.1216H106.415ZM129.137 3.27717L128.909 3.71237L128.912 3.71358L129.137 3.27717ZM135.237 9.446L134.813 9.68168L134.814 9.68392L135.237 9.446ZM135.255 28.706L135.678 28.9424L135.678 28.9417L135.255 28.706ZM129.189 34.8749L129.415 35.3104L129.417 35.3096L129.189 34.8749ZM115.943 28.7411H115.46V29.2346H115.943V28.7411ZM124.014 27.8824L123.814 27.433L123.813 27.4338L124.014 27.8824ZM126.824 24.9206L126.388 24.7089L126.386 24.7121L126.824 24.9206ZM126.807 13.2139L126.371 13.4257L126.372 13.4287L126.807 13.2139ZM123.928 10.2522L123.731 10.703L123.733 10.7036L123.928 10.2522ZM115.943 9.39345V8.89994H115.46V9.39345H115.943ZM119.918 37.013V36.5195H106.415V37.013V37.5065H119.918V37.013ZM106.415 37.013H106.898V1.1216H106.415H105.933V37.013H106.415ZM106.415 1.1216V1.61511H119.781V1.1216V0.628093H106.415V1.1216ZM119.781 1.1216V1.61511C123.328 1.61511 126.365 2.3209 128.909 3.71237L129.137 3.27717L129.365 2.842C126.654 1.35936 123.454 0.628093 119.781 0.628093V1.1216ZM129.137 3.27717L128.912 3.71358C131.466 5.09343 133.431 7.07977 134.813 9.68168L135.237 9.446L135.661 9.21036C134.188 6.43791 132.085 4.31171 129.362 2.84079L129.137 3.27717ZM135.237 9.446L134.814 9.68392C136.207 12.2719 136.914 15.3933 136.914 19.0673H137.397H137.879C137.879 15.2639 137.147 11.9711 135.66 9.20811L135.237 9.446ZM137.397 19.0673H136.914C136.914 22.7418 136.212 25.8701 134.83 28.4704L135.255 28.706L135.678 28.9417C137.153 26.1679 137.879 22.8702 137.879 19.0673H137.397ZM135.255 28.706L134.831 28.4696C133.448 31.0613 131.493 33.0486 128.96 34.4401L129.189 34.8749L129.417 35.3096C132.116 33.8272 134.205 31.7019 135.678 28.9424L135.255 28.706ZM129.189 34.8749L128.961 34.4393C126.428 35.8197 123.419 36.5195 119.918 36.5195V37.013V37.5065C123.545 37.5065 126.717 36.7808 129.415 35.3104L129.189 34.8749ZM115.943 28.7411V29.2346H119.575V28.7411V28.2476H115.943V28.7411ZM119.575 28.7411V29.2346C121.362 29.2346 122.914 28.9404 124.215 28.3312L124.014 27.8824L123.813 27.4338C122.669 27.9695 121.262 28.2476 119.575 28.2476V28.7411ZM124.014 27.8824L124.213 28.3317C125.564 27.705 126.579 26.6247 127.261 25.1293L126.824 24.9206L126.386 24.7121C125.789 26.0206 124.931 26.9149 123.814 27.433L124.014 27.8824ZM126.824 24.9206L127.26 25.1323C127.955 23.6359 128.283 21.6011 128.283 19.0673H127.8H127.318C127.318 21.534 126.995 23.4014 126.388 24.7089L126.824 24.9206ZM127.8 19.0673H128.283C128.283 16.5327 127.949 14.4967 127.241 12.9992L126.807 13.2139L126.372 13.4287C126.99 14.7352 127.318 16.6014 127.318 19.0673H127.8ZM126.807 13.2139L127.242 13.0022C126.547 11.5042 125.507 10.4256 124.123 9.80069L123.928 10.2522L123.733 10.7036C124.885 11.2237 125.764 12.1196 126.371 13.4257L126.807 13.2139ZM123.928 10.2522L124.124 9.80138C122.789 9.19308 121.175 8.89994 119.301 8.89994V9.39345V9.88695C121.083 9.88695 122.553 10.1663 123.731 10.703L123.928 10.2522ZM119.301 9.39345V8.89994H115.943V9.39345V9.88695H119.301V9.39345ZM115.943 9.39345H115.46V28.7411H115.943H116.425V9.39345H115.943ZM136.497 37.013H136.014V37.5065H136.497V37.013ZM136.497 1.1216V0.628093H136.014V1.1216H136.497ZM158.447 2.22568L158.27 2.6845L158.271 2.68487L158.447 2.22568ZM162.577 5.34514L162.183 5.62932L162.184 5.63167L162.577 5.34514ZM163.126 13.7046L162.7 13.4709L162.699 13.4727L162.698 13.4746L163.126 13.7046ZM160.761 16.4385L161.037 16.8435L161.038 16.8424L161.04 16.8413L160.761 16.4385ZM157.197 17.9457L157.101 17.4619L156.714 17.5418V17.9457H157.197ZM157.197 18.2962H156.714V18.7714L157.178 18.7893L157.197 18.2962ZM161.309 19.4704L161.069 19.8984L161.072 19.9001L161.309 19.4704ZM164.256 22.4321L163.841 22.6837L163.842 22.6854L164.256 22.4321ZM163.845 32.0885L163.445 31.8132L163.443 31.8154L163.845 32.0885ZM146.024 29.2319H145.542V29.7254H146.024V29.2319ZM154.078 28.3206L154.366 28.7166L154.367 28.7154L154.369 28.7139L154.078 28.3206ZM153.101 22.1167L152.909 22.5695L152.912 22.5706L153.101 22.1167ZM146.024 21.661V21.1675H145.542V21.661H146.024ZM146.024 15.6324H145.542V16.1259H146.024V15.6324ZM153.632 14.0726L153.242 13.7824L153.241 13.784L153.632 14.0726ZM153.015 9.65631L152.726 10.0511L152.728 10.0525L152.729 10.0539L153.015 9.65631ZM146.024 8.76255V8.26904H145.542V8.76255H146.024ZM136.497 37.013H136.979V1.1216H136.497H136.014V37.013H136.497ZM136.497 1.1216V1.61511H151.713V1.1216V0.628093H136.497V1.1216ZM151.713 1.1216V1.61511C154.346 1.61511 156.527 1.97811 158.27 2.6845L158.447 2.22568L158.625 1.76688C156.736 1.00114 154.426 0.628093 151.713 0.628093V1.1216ZM158.447 2.22568L158.271 2.68487C160.03 3.39352 161.323 4.38056 162.183 5.62932L162.577 5.34514L162.972 5.06095C161.981 3.62255 160.52 2.52996 158.624 1.76649L158.447 2.22568ZM162.577 5.34514L162.184 5.63167C163.057 6.88291 163.5 8.3633 163.5 10.0944H163.982H164.465C164.465 8.18036 163.971 6.49457 162.97 5.05863L162.577 5.34514ZM163.982 10.0944H163.5C163.5 11.339 163.231 12.4612 162.7 13.4709L163.126 13.7046L163.55 13.9383C164.162 12.7749 164.465 11.4903 164.465 10.0944H163.982ZM163.126 13.7046L162.698 13.4746C162.175 14.4898 161.439 15.3428 160.482 16.0357L160.761 16.4385L161.04 16.8413C162.116 16.0621 162.956 15.0925 163.552 13.9346L163.126 13.7046ZM160.761 16.4385L160.485 16.0336C159.528 16.715 158.403 17.1933 157.101 17.4619L157.197 17.9457L157.292 18.4295C158.708 18.1373 159.959 17.6108 161.037 16.8435L160.761 16.4385ZM157.197 17.9457H156.714V18.2962H157.197H157.679V17.9457H157.197ZM157.197 18.2962L157.178 18.7893C158.613 18.8449 159.907 19.2162 161.069 19.8984L161.309 19.4704L161.549 19.0424C160.244 18.2758 158.796 17.8643 157.215 17.803L157.197 18.2962ZM161.309 19.4704L161.072 19.9001C162.231 20.5698 163.153 21.4952 163.841 22.6837L164.256 22.4321L164.672 22.1805C163.898 20.8454 162.855 19.7963 161.546 19.0407L161.309 19.4704ZM164.256 22.4321L163.842 22.6854C164.522 23.8473 164.87 25.2288 164.87 26.8485H165.353H165.835C165.835 25.0797 165.453 23.5172 164.67 22.1788L164.256 22.4321ZM165.353 26.8485H164.87C164.87 28.7199 164.393 30.3694 163.445 31.8132L163.845 32.0885L164.246 32.3637C165.308 30.7464 165.835 28.9027 165.835 26.8485H165.353ZM163.845 32.0885L163.443 31.8154C162.505 33.2609 161.161 34.4083 159.392 35.2512L159.596 35.6985L159.799 36.1459C161.708 35.2364 163.198 33.9772 164.247 32.3614L163.845 32.0885ZM159.596 35.6985L159.392 35.2512C157.63 36.0904 155.51 36.5195 153.015 36.5195V37.013V37.5065C155.616 37.5065 157.882 37.0594 159.799 36.1459L159.596 35.6985ZM153.015 37.013V36.5195H136.497V37.013V37.5065H153.015V37.013ZM146.024 29.2319V29.7254H150.479V29.2319V28.7384H146.024V29.2319ZM150.479 29.2319V29.7254C152.124 29.7254 153.446 29.4154 154.366 28.7166L154.078 28.3206L153.79 27.9243C153.11 28.4408 152.033 28.7384 150.479 28.7384V29.2319ZM154.078 28.3206L154.369 28.7139C155.311 27.9845 155.76 26.9144 155.76 25.5866H155.277H154.795C154.795 26.6656 154.444 27.418 153.786 27.927L154.078 28.3206ZM155.277 25.5866H155.76C155.76 24.6685 155.553 23.8566 155.115 23.1767L154.712 23.4486L154.309 23.7204C154.624 24.2089 154.795 24.8224 154.795 25.5866H155.277ZM154.712 23.4486L155.115 23.1767C154.68 22.5032 154.065 22.0002 153.29 21.6627L153.101 22.1167L152.912 22.5706C153.531 22.8407 153.99 23.2256 154.309 23.7204L154.712 23.4486ZM153.101 22.1167L153.293 21.6638C152.532 21.3265 151.635 21.1675 150.616 21.1675V21.661V22.1545C151.54 22.1545 152.3 22.2993 152.909 22.5695L153.101 22.1167ZM150.616 21.661V21.1675H146.024V21.661V22.1545H150.616V21.661ZM146.024 21.661H145.542V29.2319H146.024H146.507V21.661H146.024ZM146.024 15.6324V16.1259H149.931V15.6324V15.1389H146.024V15.6324ZM149.931 15.6324V16.1259C150.815 16.1259 151.616 15.9834 152.325 15.6858L152.141 15.2293L151.958 14.7728C151.387 15.0126 150.715 15.1389 149.931 15.1389V15.6324ZM152.141 15.2293L152.325 15.6858C153.036 15.3872 153.61 14.9485 154.024 14.3613L153.632 14.0726L153.241 13.784C152.947 14.2015 152.527 14.534 151.958 14.7728L152.141 15.2293ZM153.632 14.0726L154.022 14.3629C154.457 13.7517 154.663 13.0207 154.663 12.1975H154.181H153.698C153.698 12.8463 153.538 13.3655 153.242 13.7824L153.632 14.0726ZM154.181 12.1975H154.663C154.663 10.9532 154.219 9.94854 153.301 9.25872L153.015 9.65631L152.729 10.0539C153.366 10.5324 153.698 11.2218 153.698 12.1975H154.181ZM153.015 9.65631L153.305 9.26151C152.427 8.58837 151.337 8.26904 150.068 8.26904V8.76255V9.25605C151.176 9.25605 152.05 9.53257 152.726 10.0511L153.015 9.65631ZM150.068 8.76255V8.26904H146.024V8.76255V9.25605H150.068V8.76255ZM146.024 8.76255H145.542V15.6324H146.024H146.507V8.76255H146.024ZM195.139 29.1793L195.558 29.4231L195.559 29.4224L195.139 29.1793ZM188.987 35.4007L189.214 35.8365L189.215 35.8357L188.987 35.4007ZM171.68 35.3832L171.45 35.817L171.452 35.8182L171.68 35.3832ZM165.546 29.1443L165.125 29.3858L165.126 29.3881L165.546 29.1443ZM165.546 8.97283L165.126 8.72976L165.125 8.73037L165.546 8.97283ZM171.68 2.75144L171.907 3.18689L171.908 3.18652L171.68 2.75144ZM188.987 2.75144L188.759 3.18652L188.761 3.18731L188.987 2.75144ZM195.139 8.97283L194.719 9.21591L194.719 9.2167L195.139 8.97283ZM186.777 13.6345L186.325 13.809L186.326 13.8112L186.327 13.8134L186.777 13.6345ZM184.326 10.2697L184.049 10.6736L184.051 10.6753L184.054 10.677L184.326 10.2697ZM176.358 10.2697L176.633 10.6756L176.634 10.675L176.358 10.2697ZM173.908 13.6345L173.458 13.4569L173.457 13.4588L173.908 13.6345ZM173.908 24.5176L173.456 24.6921L173.457 24.6943L173.458 24.6965L173.908 24.5176ZM176.358 27.8824L176.081 28.2863L176.083 28.288L176.086 28.2898L176.358 27.8824ZM184.326 27.8824L184.601 28.2883L184.602 28.2878L184.326 27.8824ZM186.777 24.5176L186.327 24.34L186.326 24.3419L186.777 24.5176ZM197.418 19.0673H196.935C196.935 23.0001 196.188 26.2819 194.719 28.9363L195.139 29.1793L195.559 29.4224C197.129 26.5854 197.9 23.1259 197.9 19.0673H197.418ZM195.139 29.1793L194.719 28.9355C193.243 31.5926 191.257 33.5982 188.759 34.9657L188.987 35.4007L189.215 35.8357C191.881 34.3759 193.997 32.2339 195.558 29.4231L195.139 29.1793ZM188.987 35.4007L188.761 34.9647C186.255 36.3258 183.455 37.0103 180.351 37.0103V37.5038V37.9973C183.598 37.9973 186.556 37.2797 189.214 35.8365L188.987 35.4007ZM180.351 37.5038V37.0103C177.224 37.0103 174.413 36.3199 171.908 34.9482L171.68 35.3832L171.452 35.8182C174.111 37.2738 177.08 37.9973 180.351 37.9973V37.5038ZM171.68 35.3832L171.91 34.9494C169.423 33.5703 167.442 31.5585 165.965 28.9005L165.546 29.1443L165.126 29.3881C166.688 32.1978 168.796 34.3453 171.45 35.817L171.68 35.3832ZM165.546 29.1443L165.966 28.9024C164.508 26.2476 163.766 22.9767 163.766 19.0673H163.284H162.801C162.801 23.1025 163.567 26.5497 165.125 29.3858L165.546 29.1443ZM163.284 19.0673H163.766C163.766 15.1338 164.508 11.8577 165.966 9.21531L165.546 8.97283L165.125 8.73037C163.567 11.5558 162.801 15.0094 162.801 19.0673H163.284ZM165.546 8.97283L165.966 9.21591C167.443 6.54683 169.423 4.54215 171.907 3.18689L171.68 2.75144L171.453 2.31599C168.797 3.76473 166.687 5.90764 165.126 8.72976L165.546 8.97283ZM171.68 2.75144L171.908 3.18652C174.413 1.81464 177.224 1.1244 180.351 1.1244V0.630896V0.13739C177.08 0.13739 174.111 0.860845 171.452 2.31636L171.68 2.75144ZM180.351 0.630896V1.1244C183.454 1.1244 186.254 1.81436 188.759 3.18652L188.987 2.75144L189.215 2.31636C186.557 0.861119 183.599 0.13739 180.351 0.13739V0.630896ZM188.987 2.75144L188.761 3.18731C191.257 4.54275 193.242 6.5474 194.719 9.21591L195.139 8.97283L195.559 8.72976C193.997 5.9071 191.881 3.76414 189.214 2.31556L188.987 2.75144ZM195.139 8.97283L194.719 9.2167C196.188 11.8588 196.935 15.1344 196.935 19.0673H197.418H197.9C197.9 15.0088 197.129 11.5548 195.558 8.72899L195.139 8.97283ZM187.616 19.0673H188.099C188.099 16.877 187.814 15.0013 187.226 13.4556L186.777 13.6345L186.327 13.8134C186.859 15.2119 187.134 16.9581 187.134 19.0673H187.616ZM186.777 13.6345L187.228 13.46C186.651 11.8991 185.779 10.6885 184.599 9.8624L184.326 10.2697L184.054 10.677C185.044 11.3697 185.805 12.4023 186.325 13.809L186.777 13.6345ZM184.326 10.2697L184.604 9.86581C183.433 9.02544 182.006 8.61953 180.351 8.61953V9.11304V9.60654C181.849 9.60654 183.072 9.97174 184.049 10.6736L184.326 10.2697ZM180.351 9.11304V8.61953C178.695 8.61953 177.264 9.02549 176.083 9.8644L176.358 10.2697L176.634 10.675C177.623 9.97169 178.853 9.60654 180.351 9.60654V9.11304ZM176.358 10.2697L176.084 9.86378C174.916 10.6896 174.045 11.8987 173.458 13.4569L173.908 13.6345L174.358 13.8122C174.89 12.4028 175.653 11.3686 176.633 10.6756L176.358 10.2697ZM173.908 13.6345L173.457 13.4588C172.882 15.0034 172.603 16.8779 172.603 19.0673H173.085H173.568C173.568 16.9571 173.837 15.2098 174.359 13.8102L173.908 13.6345ZM173.085 19.0673H172.603C172.603 21.2568 172.882 23.1366 173.456 24.6921L173.908 24.5176L174.359 24.3431C173.837 22.931 173.568 21.1772 173.568 19.0673H173.085ZM173.908 24.5176L173.458 24.6965C174.046 26.2429 174.916 27.4498 176.081 28.2863L176.358 27.8824L176.635 27.4784C175.653 26.7727 174.889 25.7364 174.358 24.3387L173.908 24.5176ZM176.358 27.8824L176.086 28.2898C177.266 29.1156 178.697 29.5151 180.351 29.5151V29.0216V28.5281C178.852 28.5281 177.621 28.1681 176.631 27.4752L176.358 27.8824ZM180.351 29.0216V29.5151C182.005 29.5151 183.431 29.1156 184.601 28.2883L184.326 27.8824L184.052 27.4765C183.074 28.1679 181.85 28.5281 180.351 28.5281V29.0216ZM184.326 27.8824L184.602 28.2878C185.779 27.451 186.651 26.2424 187.228 24.6933L186.777 24.5176L186.326 24.3419C185.806 25.7369 185.044 26.7717 184.051 27.4772L184.326 27.8824ZM186.777 24.5176L187.227 24.6953C187.814 23.1387 188.099 21.2578 188.099 19.0673H187.616H187.134C187.134 21.1763 186.859 22.9289 186.327 24.34L186.777 24.5176ZM196.518 37.013H196.036V37.5065H196.518V37.013ZM196.518 1.1216V0.628093H196.036V1.1216H196.518ZM219.24 3.27717L219.013 3.71237L219.015 3.71358L219.24 3.27717ZM225.34 9.446L224.916 9.68168L224.918 9.68392L225.34 9.446ZM225.357 28.706L225.781 28.9424L225.781 28.9417L225.357 28.706ZM219.291 34.8749L219.518 35.3104L219.52 35.3096L219.291 34.8749ZM206.046 28.7411H205.563V29.2346H206.046V28.7411ZM214.116 27.8824L213.917 27.433L213.915 27.4338L214.116 27.8824ZM216.927 24.9206L216.491 24.7089L216.489 24.7121L216.927 24.9206ZM216.91 13.2139L216.474 13.4257L216.475 13.4287L216.91 13.2139ZM214.031 10.2522L213.834 10.703L213.836 10.7036L214.031 10.2522ZM206.046 9.39345V8.89994H205.563V9.39345H206.046ZM210.021 37.013V36.5195H196.518V37.013V37.5065H210.021V37.013ZM196.518 37.013H197.001V1.1216H196.518H196.036V37.013H196.518ZM196.518 1.1216V1.61511H209.884V1.1216V0.628093H196.518V1.1216ZM209.884 1.1216V1.61511C213.431 1.61511 216.468 2.3209 219.013 3.71237L219.24 3.27717L219.468 2.842C216.757 1.35936 213.557 0.628093 209.884 0.628093V1.1216ZM219.24 3.27717L219.015 3.71358C221.569 5.09343 223.534 7.07977 224.916 9.68168L225.34 9.446L225.764 9.21036C224.291 6.43791 222.189 4.31171 219.465 2.84079L219.24 3.27717ZM225.34 9.446L224.918 9.68392C226.31 12.2719 227.017 15.3933 227.017 19.0673H227.499H227.982C227.982 15.2639 227.25 11.9711 225.763 9.20811L225.34 9.446ZM227.499 19.0673H227.017C227.017 22.7418 226.315 25.8701 224.934 28.4704L225.357 28.706L225.781 28.9417C227.256 26.1679 227.982 22.8702 227.982 19.0673H227.499ZM225.357 28.706L224.934 28.4696C223.551 31.0613 221.596 33.0486 219.063 34.4401L219.291 34.8749L219.52 35.3096C222.219 33.8272 224.308 31.7019 225.781 28.9424L225.357 28.706ZM219.291 34.8749L219.064 34.4393C216.531 35.8197 213.522 36.5195 210.021 36.5195V37.013V37.5065C213.648 37.5065 216.82 36.7808 219.518 35.3104L219.291 34.8749ZM206.046 28.7411V29.2346H209.678V28.7411V28.2476H206.046V28.7411ZM209.678 28.7411V29.2346C211.465 29.2346 213.017 28.9404 214.317 28.3312L214.116 27.8824L213.915 27.4338C212.772 27.9695 211.365 28.2476 209.678 28.2476V28.7411ZM214.116 27.8824L214.316 28.3317C215.667 27.705 216.682 26.6247 217.364 25.1293L216.927 24.9206L216.489 24.7121C215.892 26.0206 215.034 26.9149 213.917 27.433L214.116 27.8824ZM216.927 24.9206L217.363 25.1323C218.058 23.6359 218.386 21.6011 218.386 19.0673H217.903H217.421C217.421 21.534 217.098 23.4014 216.491 24.7089L216.927 24.9206ZM217.903 19.0673H218.386C218.386 16.5327 218.052 14.4967 217.344 12.9992L216.91 13.2139L216.475 13.4287C217.093 14.7352 217.421 16.6014 217.421 19.0673H217.903ZM216.91 13.2139L217.345 13.0022C216.65 11.5042 215.61 10.4256 214.226 9.80069L214.031 10.2522L213.836 10.7036C214.988 11.2237 215.867 12.1196 216.474 13.4257L216.91 13.2139ZM214.031 10.2522L214.227 9.80138C212.892 9.19308 211.278 8.89994 209.404 8.89994V9.39345V9.88695C211.186 9.88695 212.656 10.1663 213.834 10.703L214.031 10.2522ZM209.404 9.39345V8.89994H206.046V9.39345V9.88695H209.404V9.39345ZM206.046 9.39345H205.563V28.7411H206.046H206.528V9.39345H206.046Z" fill="black"/>
</g>
</g>
<defs>
<clipPath id="clip0_225_2747">
<rect width="228" height="38" fill="white"/>
</clipPath>
</defs>
</svg>
